<svg xmlns="http://www.w3.org/2000/svg" viewBox="0 0 517.62 567.31" class="hide"><defs><style>.hide{visibility:hidden;}.a{fill:none;stroke:#777;stroke-linecap:round;stroke-miterlimit:3;stroke-width:3px;transition:.5s stroke, .5s stroke-width;}.loaded .a{stroke:#000;stroke-width:12px;}</style></defs><title>drawing-min</title><path class="a" d="M195.2,187.48c0,33,3.8,72.22,5.2,105.22,1.1,27.2.5,54.5.8,81.7.4,26.9,5.5,58.3-7.5,83.2-4.3,8.2-10.9,16.3-19.5,20.2-17.6,8-46.5.2-56.5-16.5-13.7-22.9-10.3-53.9-10.3-79.5,0-12.5-1.5-26,.8-38.2" transform="translate(-44.66 -117.19)"/><path class="a" d="M277.7,183.6a34.58,34.58,0,0,0-10.5,3.2c-20.8,9.9-22.8,34-25.2,54.2-2.6,21.8-3.3,44-4,66-1.1,36.5-.8,72.6,5.8,108.7,2.7,14.5,4.5,30.7,10.9,44.2,2.9,6.3,8,13.2,14.8,15.6,4.7,1.7,10.1,1.8,15,1.2,26.6-3.3,41.3-31.5,46.5-55,5.7-25.6,6.3-51.9,6.8-78,.7-33.2.7-66.5-7.4-99-3.4-13.6-7.4-27.5-16.1-38.9-3.5-4.5-8.3-8.5-12.7-12.2-7.6-6.3-13.6-11.5-23.9-10" transform="translate(-44.66 -117.19)"/><path class="a" d="M379.7,473.4c-.1-21.2-.9-42.4-.7-63.7.1-19.6,1.1-39.1,1.1-58.6,0-32.6-.7-65.6.3-98,.5-15.9.8-31.8.8-47.8,0-8.4-.22-25.35,4.76-19.58C396,197.37,405.1,236.5,407.5,243.4c22.1,65,46.1,129.1,64.8,195.2,2.9,10.3,3.4,27,10.2,31.9h.1c8.45-4.62,4.4-16.6,4.4-27.1V395.7c-.1-16.5-1.1-32.9-1.6-49.3-.7-25.7-.6-51.5-.6-77.2,0-13,1.1-26,1.6-39,.6-15.3.6-30.8.6-46.2" transform="translate(-44.66 -117.19)"/><path class="a" d="M107.3,522.2c-1.5,11.2.4,22.5,1.3,33.7,1.2,13.8,1.3,29.8,7,42.7,5.9,13.5,18.3,21,33,16.4,16.6-5.2,21.8-20.5,23.9-35.9,3.1-22.4,6.3-45.6,2.4-68.2" transform="translate(-44.66 -117.19)"/><path class="a" d="M207.2,516.2c-1,10,.1,19.9.6,30,.7,13.8,1.2,27.5,2.2,41.2a142.31,142.31,0,0,0,2.4,17.2c.6,3,1,6.7,3.2,9.1,3.8,4.2,11.4,2.7,16.3,2.2,10.3-1,20.6-2.3,30.7-4.1,6.1-1.1,11.8-1.8,17.2-4.9" transform="translate(-44.66 -117.19)"/><path class="a" d="M355.5,513.2c-10.1-1.6-19.9-.2-30,0-3.6.1-9.1-.9-12.1,1.7-3.5,3-2.8,9.9-2.8,14.1,0,12.5-2.5,25.8,0,38.2,0,0,15.14-1.55,27.7-3.8s-27.7,3.8-27.7,3.8c0,9.7-.2,19.5.6,29.2.4,4.1.2,9,2.7,12.5,3.4,4.7,9.7,4,14.8,4,12.7,0,28.7.5,40.5-4.5" transform="translate(-44.66 -117.19)"/><path class="a" d="M400.7,510.2c-1.8,23.5-1.4,47.8.1,71.2.7,10.3,2.8,20.5,2.9,30.7" transform="translate(-44.66 -117.19)"/><path class="a" d="M488.4,521.4c-4.6-5.3-7.9-10.9-15-13.1-16.4-4.9-36.9,5.8-32.1,25.1,3.4,13.8,19.6,16.7,30.6,22a34.44,34.44,0,0,1,18.6,35.8C488,607.5,473,613,458.4,610.7c-5-.8-11.1-2.4-14.5-6.3-4.1-4.6-3.6-11.3-3.5-17" transform="translate(-44.66 -117.19)"/><path class="a" d="M59.9,173.4c1-5.1,4.7-8.3,8-12.3,2.7-3.1,5-6.5,8.2-9.2,10-8.5,20-10.4,32.2-13.3,9.4-2.2,18.8-4.4,28.5-5,6-.4,12,1.1,18,1.2,4.8,0,9.4-1.6,14.2-1.7,6-.2,12,1,18,1,8.5,0,17.1.4,25.5-.3,17.2-1.6,34.3-5.1,51.7-5.7,9.5-.4,17.8,4.8,27,4.7,10.7-.1,20.8-5.2,31.5-6.1,13.1-1,26,1.7,39,1.3a213.63,213.63,0,0,0,24-1.9c5-.7,9.9-2.4,15-2.8,10-.8,19.4,2.9,29.2,4.1,8.5,1.1,16.9-.6,25.5,1.2,5.9,1.3,11.1,5.3,17.2,5.6,7.6.4,15-2.2,22.5-2.8,7.3-.6,14.4.7,21.7.5,6.2-.2,14.1-2.3,20.1-.1,3.9,1.5,8.8,6.9,11.3,10.2,5.8,7.7.6,20.1,2,28.9,1.5,9.6.5,17.4-.3,27-.4,4.7.1,9.5-.6,14.2-.7,5-2.9,9.9-3.2,15-.3,6.3,2.9,12.5,3.7,18.7,1.3,10.9.6,22.1.6,33,0,36.8,2.5,73.3,2.2,110.2-.1,6.7-1.4,13.4-1.5,20.2-.2,21,1.2,42,1,63-.1,11.2-1.9,22.5-1.7,33.7.3,14.4.2,29.2,1.8,43.5,2.2,19.2,6.8,40.9,1.9,60-1.5,5.9-5.4,10.4-7.8,15.8-4.1,9.4-5.5,22.4-13.5,29.5-4.9,4.4-12.3,6.1-18.4,8.2-4.6,1.6-8.8,3.9-13.5,5.2-5.4,1.5-11.1,1.7-16.5,2.9-4,.9-7.9,2.7-12,3.2-7.9,1-15.2-3.6-23.2-2.9-6,.5-12,2-18,2.5-23.9,2-48.1,3-72,3.9-9,.3-18-.9-27-.7-15.7.3-31.5,1.9-47.2,1.4-8.4-.3-16.3-3.2-24.7-3.6-9.2-.5-17.7,3.8-27,3.6-8.6-.2-16.9-2.8-25.5-3.7-19.8-2-39.7-3.1-59.2-7.3a71.79,71.79,0,0,0-21.7-1.4c-5.7.5-11.4,2.2-17.2,2.4-6.7.2-13.5-1.7-20.2-2.5-8.1-.9-17.1-1.9-23.9-7-10.3-7.7-10.3-22.1-11.4-33.7s-2.6-22.8-2.2-34.5c.4-12.5,1.2-25.1,2.4-37.5.5-4.7,1.7-9.4,2-14.2.4-7.1-1-14-1.3-21-.3-5.7.9-11.5.3-17.2-.6-6.5-2.9-12.9-3-19.5-.2-7.6,2-15.6,2.9-23.2,1.1-8.7,1.4-17.5,2.2-26.2.8-8,2.1-15.9,2-24,0-8.8.3-19-1.3-27.7-1.1-6.2-4-11.8-4.9-18-1.6-11.3-2.1-23.1-2.6-34.5-.3-7.7,1-15.5,1.3-23.2.4-11,.1-22.1,1.6-33,.9-6.6,3.3-12.9,4-19.5.8-7.1-1.4-14.4-1-21.7.6-11.3,3.4-22.4,4.2-33.7C61.3,188.9,58.4,181,59.9,173.4Z" transform="translate(-44.66 -117.19)"/></svg>
